<svg xmlns="http://www.w3.org/2000/svg" xml:space="preserve" width="655.359" height="655.359" style="shape-rendering:geometricPrecision;text-rendering:geometricPrecision;image-rendering:optimizeQuality;fill-rule:evenodd;clip-rule:evenodd" viewBox="0 0 6.827 6.827"><defs><style>.fil1{fill:#fffffe;fill-rule:nonzero}</style></defs><path style="fill:#424242" d="M0 0h6.827v6.827H0z"/><g id="Layer_x0020_1"><path class="fil1" d="M3.413 1.6c.501 0 .954.203 1.283.531.328.328.53.782.53 1.282a1.808 1.808 0 0 1-1.813 1.813A1.808 1.808 0 0 1 1.6 3.414c0-.5.203-.954.531-1.282A1.808 1.808 0 0 1 3.413 1.6zm1.132.682c-.29-.29-.69-.469-1.132-.469-.442 0-.842.18-1.131.469a1.595 1.595 0 0 0 0 2.263c.29.29.69.468 1.131.468a1.595 1.595 0 0 0 1.6-1.6c0-.442-.179-.842-.468-1.131z"/><path class="fil1" d="M3.413 2.169a1.24 1.24 0 0 1 1.245 1.244 1.24 1.24 0 0 1-1.245 1.245A1.24 1.24 0 0 1 2.17 3.413 1.24 1.24 0 0 1 3.413 2.17zm.73.515a1.028 1.028 0 0 0-1.459 0 1.028 1.028 0 0 0 0 1.458 1.028 1.028 0 0 0 1.458 0 1.028 1.028 0 0 0 0-1.458zM1.376 2.507a.107.107 0 0 0-.213 0v1.28a.107.107 0 0 0 .213 0v-1.28z"/><path class="fil1" d="M1.27 1.227c.137 0 .254.109.33.286.066.15.107.355.107.578 0 .5-.178.498-.405.496h-.065c-.227.002-.405.004-.405-.496 0-.223.04-.428.106-.578.077-.177.194-.286.331-.286zm.136.37c-.043-.097-.092-.157-.137-.157-.045 0-.093.06-.136.158a1.276 1.276 0 0 0-.088.493c0 .286.084.285.19.284l.034-.001h.034c.107.002.19.003.19-.283 0-.195-.033-.37-.087-.493zM1.27 3.745a.294.294 0 0 1 .295.295v1.265a.294.294 0 0 1-.296.295.294.294 0 0 1-.295-.295V4.04a.294.294 0 0 1 .295-.295zm0 .213a.082.082 0 0 0-.058.024.082.082 0 0 0-.024.058v1.265a.082.082 0 0 0 .082.082.082.082 0 0 0 .082-.082V4.04a.082.082 0 0 0-.025-.058.082.082 0 0 0-.058-.024zM5.681 2.507a.107.107 0 0 0-.213 0v1.28a.107.107 0 0 0 .213 0v-1.28z"/><path class="fil1" d="M5.932 1.58a.106.106 0 0 0-.2.07c.02.06.037.129.049.204.011.074.017.154.017.237 0 .286-.083.285-.19.284l-.034-.001H5.54c-.106.002-.19.003-.19-.283 0-.079.006-.154.016-.223.01-.071.025-.137.044-.196a.106.106 0 0 0-.202-.066c-.023.07-.04.148-.053.232-.012.08-.018.166-.018.253 0 .5.178.498.405.496h.065c.227.002.405.004.405-.496a1.77 1.77 0 0 0-.02-.268 1.357 1.357 0 0 0-.06-.243zM5.574 3.745a.294.294 0 0 1 .296.295v1.265a.294.294 0 0 1-.296.295.294.294 0 0 1-.295-.295V4.04a.294.294 0 0 1 .295-.295zm0 .213a.082.082 0 0 0-.057.024.082.082 0 0 0-.024.058v1.265a.082.082 0 0 0 .082.082.082.082 0 0 0 .082-.082V4.04a.082.082 0 0 0-.025-.058.082.082 0 0 0-.058-.024z"/><path class="fil1" d="M5.681 1.493a.107.107 0 0 0-.213 0v.96a.107.107 0 0 0 .213 0v-.96z"/><path style="fill:none" d="M0 0h6.827v6.827H0z"/></g></svg>